<svg xmlns="http://www.w3.org/2000/svg" width="200" height="200" viewBox="0 0 200 200">
  <rect width="200" height="200" fill="#fff"/>
  <rect x="20" y="20" width="50" height="50" fill="#000"/>
  <rect x="130" y="20" width="50" height="50" fill="#000"/>
  <rect x="20" y="130" width="50" height="50" fill="#000"/>
  <rect x="30" y="30" width="30" height="30" fill="#fff"/>
  <rect x="140" y="30" width="30" height="30" fill="#fff"/>
  <rect x="30" y="140" width="30" height="30" fill="#fff"/>
  <rect x="40" y="40" width="10" height="10" fill="#000"/>
  <rect x="150" y="40" width="10" height="10" fill="#000"/>
  <rect x="40" y="150" width="10" height="10" fill="#000"/>
  <rect x="80" y="20" width="10" height="10" fill="#000"/>
  <rect x="100" y="20" width="10" height="10" fill="#000"/>
  <rect x="80" y="40" width="10" height="10" fill="#000"/>
  <rect x="110" y="50" width="10" height="10" fill="#000"/>
  <rect x="80" y="80" width="40" height="40" fill="#003478"/>
  <text x="100" y="107" font-family="Arial" font-size="12" font-weight="bold" fill="#fff" text-anchor="middle">FORD</text>
  <rect x="130" y="90" width="10" height="10" fill="#000"/>
  <rect x="150" y="80" width="10" height="10" fill="#000"/>
  <rect x="170" y="100" width="10" height="10" fill="#000"/>
  <rect x="20" y="90" width="10" height="10" fill="#000"/>
  <rect x="50" y="100" width="10" height="10" fill="#000"/>
  <rect x="130" y="130" width="50" height="50" fill="#000"/>
  <rect x="140" y="140" width="30" height="30" fill="#fff"/>
  <rect x="150" y="150" width="10" height="10" fill="#000"/>
</svg>
