<svg xmlns="http://www.w3.org/2000/svg" width="200" height="200" viewBox="0 0 200 200">
  <rect width="200" height="200" fill="#fff"/>
  <rect x="20" y="20" width="50" height="50" fill="#000"/>
  <rect x="130" y="20" width="50" height="50" fill="#000"/>
  <rect x="20" y="130" width="50" height="50" fill="#000"/>
  <rect x="30" y="30" width="30" height="30" fill="#fff"/>
  <rect x="140" y="30" width="30" height="30" fill="#fff"/>
  <rect x="30" y="140" width="30" height="30" fill="#fff"/>
  <rect x="40" y="40" width="10" height="10" fill="#000"/>
  <rect x="150" y="40" width="10" height="10" fill="#000"/>
  <rect x="40" y="150" width="10" height="10" fill="#000"/>
  <circle cx="100" cy="100" r="20" fill="#004B93"/>
  <path d="M80 100 Q100 85 120 100" fill="#E32934"/>
  <path d="M80 100 Q100 115 120 100" fill="#fff"/>
  <rect x="130" y="130" width="50" height="50" fill="#000"/>
  <rect x="140" y="140" width="30" height="30" fill="#fff"/>
  <rect x="150" y="150" width="10" height="10" fill="#000"/>
</svg>
